<svg width="22" height="19" viewBox="0 0 22 19" fill="none" xmlns="http://www.w3.org/2000/svg">
<path d="M4.22883 9.79188C4.09645 9.79188 3.98873 9.7057 3.98873 9.5998C3.98873 9.4939 4.09645 9.40772 4.22883 9.40772H15.434C15.5664 9.40772 15.6741 9.4939 15.6741 9.5998C15.6741 9.7057 15.5664 9.79188 15.434 9.79188H4.22883ZM4.22146 8.37432C4.08964 8.37432 3.98249 8.2886 3.98249 8.18315C3.98249 8.0777 4.08964 7.99198 4.22146 7.99198L17.1144 7.9913C17.2462 7.9913 17.3533 8.07702 17.3533 8.18247C17.3533 8.28792 17.2462 8.37364 17.1144 8.37364L4.22146 8.37432ZM12.5985 6.9588C12.4661 6.9588 12.3584 6.87262 12.3584 6.76672C12.3584 6.66082 12.4661 6.57464 12.5985 6.57464H16.5001C16.6325 6.57464 16.7402 6.66082 16.7402 6.76672C16.7402 6.87262 16.6325 6.9588 16.5001 6.9588H12.5985ZM12.5985 5.53648C12.4661 5.53648 12.3584 5.4503 12.3584 5.3444C12.3584 5.2385 12.4661 5.15232 12.5985 5.15232H17.7284C17.8607 5.15232 17.9685 5.2385 17.9685 5.3444C17.9685 5.4503 17.8607 5.53648 17.7284 5.53648H12.5985ZM12.5985 4.11438C12.4661 4.11438 12.3584 4.02821 12.3584 3.9223C12.3584 3.8164 12.4661 3.73023 12.5985 3.73023H17.1144C17.2468 3.73023 17.3545 3.8164 17.3545 3.9223C17.3545 4.02821 17.2468 4.11438 17.1144 4.11438H12.5985ZM10.9921 6.95766L4.22684 6.89598C4.09503 6.8953 3.98901 6.80867 3.98986 6.70323C3.99015 6.6683 4.00234 6.63542 4.02303 6.6073L5.33151 4.79447C5.39699 4.70308 5.54354 4.67156 5.65778 4.72395C5.69463 4.74073 5.72355 4.76431 5.74367 4.79153L6.91212 6.3515L8.73453 3.82638C8.80058 3.73499 8.94741 3.70369 9.06165 3.75653C9.10332 3.77581 9.13478 3.80347 9.15491 3.83545L11.2013 6.67125C11.2667 6.76264 11.2273 6.87988 11.1131 6.93227C11.0748 6.94973 11.0332 6.95789 10.9921 6.95766ZM7.32768 6.54176L10.5773 6.57147L8.94203 4.3051L7.32768 6.54176ZM4.64014 6.51727L6.49117 6.53405L5.54241 5.26684L4.64014 6.51727ZM2.48891 2.6399V10.8477H19.5111V2.6399H2.48891ZM21.0149 1.10079C20.9063 1.01371 20.7564 0.959961 20.5911 0.959961C20.4264 0.959961 20.2762 1.01416 20.1676 1.10101C20.059 1.18787 19.9913 1.30806 19.9913 1.43981V2.45032V11.0423V17.7598C19.9913 17.8915 20.059 18.0117 20.1676 18.0986C20.2762 18.1854 20.4264 18.2396 20.5911 18.2396C20.7564 18.2396 20.9063 18.1859 21.0143 18.0993C21.1237 18.012 21.1909 17.892 21.1909 17.7598V1.43981C21.1909 1.3076 21.1237 1.18764 21.0149 1.10079ZM1.83211 1.10079C1.7244 1.01393 1.57416 0.959961 1.4089 0.959961C1.2442 0.959961 1.09397 1.01416 0.985398 1.10101C0.876831 1.18787 0.809082 1.30806 0.809082 1.43981V17.7598C0.809082 17.8915 0.876831 18.0117 0.985398 18.0986C1.09397 18.1854 1.2442 18.2396 1.4089 18.2396C1.56849 18.2396 1.71391 18.1893 1.82644 18.1031C1.94068 18.0115 2.00871 17.8913 2.00871 17.7598V11.0373V2.44533V1.43981C2.00871 1.30828 1.94068 1.18809 1.83211 1.10079Z" fill="white"/>
</svg>
