<svg width="22" height="25" viewBox="0 0 22 25" fill="none" xmlns="http://www.w3.org/2000/svg">
<path d="M3.54755 20.1913H11.9495C12.1896 20.1913 12.4176 20.2833 12.5897 20.4513L16.1666 23.9361C16.3107 24.0762 16.4947 24.1482 16.6868 24.1482C16.7828 24.1482 16.8828 24.1282 16.9748 24.0882C17.2549 23.9721 17.4309 23.7001 17.4309 23.4V21.1034C17.4309 20.5993 17.8391 20.1872 18.3432 20.1872H19.0273C20.5877 20.1872 21.8561 18.9189 21.8561 17.3584V8.68426C21.8561 7.1719 20.6638 5.93567 19.1674 5.86346L19.6955 5.19928C19.6955 5.19928 19.7155 5.18728 19.7195 5.17928C19.7275 5.17127 19.7275 5.15927 19.7356 5.14727L21.3759 3.07876C21.612 2.7827 21.716 2.41058 21.672 2.0345C21.628 1.65842 21.44 1.32234 21.1439 1.08627L20.3437 0.454101C20.0476 0.218041 19.6795 0.114022 19.2994 0.15804C18.9233 0.202052 18.5873 0.390098 18.3512 0.686172L17.759 1.43437V1.44237L14.254 5.85947H3.54749C1.98709 5.85947 0.71875 7.12778 0.71875 8.68821V17.3703C0.71875 18.9307 1.98706 20.1991 3.54749 20.1991L3.54755 20.1913ZM18.1353 2.24273L19.9117 3.63907L19.3356 4.36727L17.5591 2.97093L18.1353 2.24273ZM19.3916 0.950401C19.5556 0.934397 19.7156 0.978409 19.8477 1.07843L20.6479 1.7106C20.7759 1.81463 20.8599 1.95867 20.8799 2.12271C20.8999 2.28676 20.8519 2.44679 20.7519 2.57881L20.4118 3.01092L18.6354 1.61458L18.9835 1.17848C19.0875 1.05044 19.2315 0.966425 19.3956 0.946419L19.3916 0.950401ZM17.059 3.59913L18.8354 4.99547L16.8589 7.4881L15.0865 6.08774L17.059 3.60312L17.059 3.59913ZM16.2748 8.04414L13.7262 10.0286C13.5821 10.1407 13.4541 10.0646 13.4061 10.0286C13.3581 9.98863 13.254 9.8846 13.3301 9.71655L14.6744 6.77591L16.2748 8.04023L16.2748 8.04414ZM1.51499 8.6843C1.51499 7.56402 2.42323 6.65579 3.54351 6.65579H13.8501L12.6018 9.38441C12.3937 9.83652 12.5178 10.3486 12.9098 10.6567C13.1059 10.8128 13.338 10.8888 13.566 10.8888C13.7941 10.8888 14.0221 10.8128 14.2182 10.6607L17.1709 8.36016C17.1709 8.36016 17.1949 8.33215 17.2069 8.31615C17.2149 8.30814 17.2309 8.30414 17.2389 8.29214L18.5392 6.65174H19.0273C20.1476 6.65174 21.0558 7.55998 21.0558 8.68026V17.3624C21.0558 18.4826 20.1476 19.3909 19.0273 19.3909H18.3431C17.3989 19.3909 16.6307 20.1591 16.6307 21.1073V23.2718L13.1459 19.8749C12.8218 19.5628 12.3977 19.3908 11.9496 19.3908H3.54764C2.42736 19.3908 1.51912 18.4825 1.51912 17.3623V8.684L1.51499 8.6843ZM3.15941 13.2735C3.15941 13.0534 3.33946 12.8734 3.55951 12.8734H19.3354C19.5554 12.8734 19.7355 13.0534 19.7355 13.2735C19.7355 13.4935 19.5554 13.6736 19.3354 13.6736H3.56335C3.3433 13.6736 3.16325 13.4935 3.16325 13.2735H3.15941ZM3.34746 10.0407C3.34746 9.82062 3.5275 9.64058 3.74756 9.64058H10.4851C10.7052 9.64058 10.8852 9.82062 10.8852 10.0407C10.8852 10.2607 10.7052 10.4408 10.4851 10.4408H3.7514C3.53134 10.4408 3.3513 10.2607 3.3513 10.0407H3.34746ZM3.15941 16.3342C3.15941 16.1142 3.33946 15.9341 3.55951 15.9341H19.3354C19.5554 15.9341 19.7355 16.1142 19.7355 16.3342C19.7355 16.5543 19.5554 16.7343 19.3354 16.7343H3.56335C3.3433 16.7343 3.16325 16.5543 3.16325 16.3342H3.15941Z" fill="white"/>
</svg>
